/* XPM */
static char *_3583ac8a0e443a6b7604532c42efabe[] = {
/* columns rows colors chars-per-pixel */
"50 50 244 2 ",
"   c #180801",
".  c #1D1205",
"X  c #18140A",
"o  c #171A17",
"O  c #0C0D0C",
"+  c #241302",
"@  c #2A1604",
"#  c #2B1A03",
"$  c #26170A",
"%  c #241B0C",
"&  c #2C1B0C",
"*  c #291709",
"=  c #331C04",
"-  c #331E0C",
";  c #361C09",
":  c #241C13",
">  c #2A1B14",
",  c #361E11",
"<  c #1B221E",
"1  c #35210D",
"2  c #3C220D",
"3  c #372303",
"4  c #2C241A",
"5  c #2A2417",
"6  c #342313",
"7  c #3C2413",
"8  c #3C2817",
"9  c #3B2618",
"0  c #342A1B",
"q  c #3C2B1B",
"w  c #352419",
"e  c #3A321D",
"r  c #192325",
"t  c #242C2D",
"y  c #292925",
"u  c #352C24",
"i  c #2C312E",
"p  c #3D3425",
"a  c #39342B",
"s  c #272E32",
"d  c #2B3334",
"f  c #283235",
"g  c #333633",
"h  c #333B3C",
"j  c #393B37",
"k  c #382F32",
"l  c #161F24",
"z  c #44290B",
"x  c #422613",
"c  c #442A15",
"v  c #492C16",
"b  c #432C1B",
"n  c #4A2D1A",
"m  c #42241A",
"M  c #45321D",
"N  c #4C321C",
"B  c #493315",
"V  c #52341D",
"C  c #4E2F12",
"Z  c #412E24",
"A  c #443323",
"S  c #4B3423",
"D  c #4C3A24",
"F  c #4C3B2B",
"G  c #45392C",
"H  c #523622",
"J  c #543B24",
"K  c #5A3C26",
"L  c #553C2A",
"P  c #5B3E29",
"I  c #583427",
"U  c #453C33",
"Y  c #493834",
"T  c #543E35",
"R  c #412E30",
"E  c #643B2A",
"W  c #3D413B",
"Q  c #3A4139",
"!  c #664B18",
"~  c #5D432C",
"^  c #59472C",
"/  c #4A4434",
"(  c #474338",
")  c #5B4534",
"_  c #584738",
"`  c #544A31",
"'  c #62442D",
"]  c #674B2C",
"[  c #6B532A",
"{  c #634631",
"}  c #634932",
"|  c #624A3B",
" . c #6A4A38",
".. c #695438",
"X. c #75573A",
"o. c #73512F",
"O. c #7B6338",
"+. c #7B602B",
"@. c #363E42",
"#. c #283641",
"$. c #403E43",
"%. c #3C4343",
"&. c #394647",
"*. c #3C4D54",
"=. c #434442",
"-. c #444944",
";. c #434B4B",
":. c #4B4B47",
">. c #564B44",
",. c #4D514D",
"<. c #47504F",
"1. c #5C5344",
"2. c #53534D",
"3. c #5B564B",
"4. c #474D50",
"5. c #4C5454",
"6. c #485659",
"7. c #545553",
"8. c #545956",
"9. c #545B5C",
"0. c #5B5D5B",
"q. c #595855",
"w. c #644E41",
"e. c #665748",
"r. c #635B53",
"t. c #685C55",
"y. c #70584E",
"u. c #5D615C",
"i. c #796647",
"p. c #63635C",
"a. c #6B655B",
"s. c #696557",
"d. c #736C5D",
"f. c #776857",
"g. c #72694B",
"h. c #4B5B63",
"j. c #545E61",
"k. c #515F6A",
"l. c #546264",
"z. c #5B6464",
"x. c #5A676A",
"c. c #58686F",
"v. c #636563",
"b. c #656A65",
"n. c #6A6B65",
"m. c #6C6D6A",
"M. c #666B6A",
"N. c #766C65",
"B. c #6D716C",
"V. c #6D7165",
"C. c #73736C",
"Z. c #7B736B",
"A. c #797568",
"S. c #696F72",
"D. c #6D7375",
"F. c #697677",
"G. c #747672",
"H. c #757974",
"J. c #7C7C74",
"K. c #747B7C",
"L. c #7C7E7A",
"P. c #747578",
"I. c #6E5E61",
"U. c #886D3A",
"Y. c #876A58",
"T. c #85745A",
"R. c #8A704B",
"E. c #837B6C",
"W. c #877768",
"Q. c #987C66",
"!. c #837E73",
"~. c #857877",
"^. c #8C7775",
"/. c #805F56",
"(. c #7B827C",
"). c #978153",
"_. c #A38A5C",
"`. c #9B856A",
"'. c #83837B",
"]. c #8C857B",
"[. c #888476",
"{. c #97887B",
"}. c #89816C",
"|. c #AD9979",
" X c #AC9271",
".X c #BBA77D",
"XX c #C2AA7B",
"oX c #767E84",
"OX c #7C8484",
"+X c #858683",
"@X c #81868A",
"#X c #898A86",
"$X c #988C84",
"%X c #8E928C",
"&X c #98948A",
"*X c #888D91",
"=X c #8D9493",
"-X c #9B9E9B",
";X c #949997",
":X c #A79886",
">X c #B39B87",
",X c #A79B93",
"<X c #B5958D",
"1X c #9AA19B",
"2X c #BBA48A",
"3X c #ABA596",
"4X c #B6A89A",
"5X c #B2AB92",
"6X c #989DA1",
"7X c #99A3A4",
"8X c #A5A8A8",
"9X c #B7A8A4",
"0X c #BBB5A9",
"qX c #A7ABB2",
"wX c #AFB3B3",
"eX c #C4AA89",
"rX c #C5AA95",
"tX c #CAB79C",
"yX c #D4B799",
"uX c #CEB096",
"iX c #C7AEA4",
"pX c #C9B8A5",
"aX c #C8BAB4",
"sX c #D7B8A7",
"dX c #E1BEA8",
"fX c #D8C4AA",
"gX c #CBC5B7",
"hX c #D5C7B8",
"jX c #C9C1AA",
"kX c #E8CBB6",
"lX c #EAD3BA",
"zX c #E9D2AE",
"xX c #F6E2B7",
"cX c #E1CA9E",
"vX c #BDC6C4",
"bX c #D8D1C6",
"nX c #E6D6C7",
"mX c #F3DCC6",
"MX c #E8D4CB",
"NX c #ECE4DA",
"BX c #F7E8D7",
"VX c #FFF5D9",
"CX c #F4E2CE",
"ZX c #F8F3E6",
/* pixels */
"x v v v m x v v B b c x c c B C C z C z z ; - @ + # . # 3   @ 3 [ +.O.U.U.).! ! ! 3 3 3 V ` M A K ~ ",
"z x x z x x x x b c c c c B v v C C C 3 2 2 1 @ @ + # + + c i.|.yX.X.X.X_.U.+.+.+.+.3 3 3 M _ ` K P ",
"2 x 2 x x x m x c x 8 c B N n v v v B = , @ * * $ # # & O..X.XyXxXcXcX.X_.U.U.U.R._.R.B . . / ..^ ] ",
"x 2 2 2 x v m m x 7 c n N V N N n c c , m , - & . @ ..).g.O.|.zXxXzXeX).+.+.! ! O.O.O.D = . . e f.R.",
"m x x 2 2 7 7 7 7 7 x v n N n N I Z Z m Z - & w ` f.g.^ ` [ g.).`. XR.O.V [ ] ] ^ B D M M 5   . ^ ^ ",
"v x x ; 2 2 2 , - 2 7 x x v v v n m S L Y _ Z.:X5XW.f.T.O./ e 3 + 3 3 3 # 3 7 n M ` A A e & 5 5 5 e ",
"x 7 7 7 , , m 7 - 7 8 x x c c v V N P y.| f.$X>X{.t.F : . % . 3 3 3 # # = + c D / f.T.}.}.r./ % e / ",
"7 7 m 7 , , ; ; 2 8 n n v c v n K N } `.:XsX4X].G . : . 5 _ ( e 1 M L T.`.5X4X9X4X,X{.r./ / e p s.N.",
"7 8 b b b 8 7 6 8 c m n n H H J { ..fXpXhXW.0 U 4 > : a u % > w D f.tXhXCXZXMXaX$Xr.U t.3./ s.d.a.N.",
"9 m A A A b m 9 , , 7 c n J E } S :XpX<X1.+ % u 4 >.5 u u   / t.E.CXBXnXhX,XW.r.e.N.Z.3.d.&X].N.A.].",
"6 9 b Z A u 9 9 q q m B S P E  .w.f.^.w.  O >.r.U u ( u u ` e.5XhX3X}.3.Y w.t.$X$X+X-XMXZXnX0X&Xa.F ",
"& , 6 9 9 w 6 6 b b N S I P {  ._ R k   > N.N.p a u 0 p p _ E.A./ G X 5 U s.].,X9XbX3X&X0X3XN.1.y.W.",
"& & 1 1 : & & , , 8 n H P P {  .I.R   Y 0Xr.4 4 : 5 r.3.}.gX:X` _ Q d.5X5X{.{.(.a.u G 4 w ( t.aXhX,X",
"$ * $ * & & & & , 8 A L { { { | | w > ~.p O X o X X 5 U ( 5 X 5 5 2.$X,XNXZXgXgXd.& N.3X^.^.W.t.!.{.",
"$ $ $ $ & > 6 9 S S T ~ { { { { e.G w 9 p ` ( 5 Q _ ( U :.( u y 4 u < e Q Q e.../ E.0XhXbXbXaX,X].3.",
"& & & , 6 0 A S T ) ) ) ) { { { ^ } f.N.d.d.d.g.s.(.$X!.n.N.N.a.q.1.g.d.` ` e % / s.s.>.q.r.w.N.3.k ",
"& * & 6 Z F ` _ | w.w.) ) | ) L ~ ..A.A.^.4XhXfXhX:X<X:XtXjXgXaXpXiX4X|.Y.Y.y.e._ :.d d o o < O 4 g ",
"6 6 9 q Z A S F ) ) w.| ) T F S K ~ V.'.I.^.pXmXlX2XdXmXVXVXCXnXpX4XeXyXyX|.i.e.N.0.9.F.6.d o y o < ",
"6 q q e 9 9 q A Z S I T L S S H S | ].u.w T m I S Q.MXQ.L T T Y _ G | X.X.Q.Q.) Z.v.z.F.5.@.o g h %.",
"6 6 9 9 6 , 6 6 8 b A H S Z S I I ) ].#X>.I././.) 4XdXQ.e.W.~.,X:X&X3X>XeX XY.g.e.p.9.j.5.;.W h 6.6.",
"6 0 w 6 6 6 1 1 b S S N S J P I E w.9XK.T y.m  .Y.iXiX<X<XQ.^.aXy 4 | T.|.eX|.W.s.r.v.z.u.&.7.0.9.h.",
"q 9 0 9 6 6 6 1 8 M H H P ' P P E Y.4Xa.3.iXiXQ.<XmXkXuXlX|.<X9X$XJ.hXZXdXsXlXtXW.a.].D.6.4.5.F.c.h.",
"p p q q 9 6 6 1 7 c n N K ' ' E /./.<X3.$XVXuXQ.uXkXdXyXlX<X9XhXNXNXBXlXkXVXmXrXW.f.&X#X9.x.6.x.h.*.",
"A A A A q 8 7 7 x 7 v N V K E ] E U.|.e.$XCXdXQ.dXkXyXyXzXdXiXhXhXnXlXCXVXVXkXeX{.N.n.'.<.u.l.c.h.6.",
"G F F A b q b q c B B J ' ' ] E X...0XV.f.iXQ.<XBXdXrXeXuXzXVXnXCXnXVXBXxXcXrX|.:X| r.(.l.l.k.c.k.h.",
"F F F A D D D N N V V H K ' '  .X.O.5Xp.Y <X^.kXMXaXiXsXtX5XgXZXBXzXzXfXeXeX>X`._ e 3.H.9.*.6.c.c.l.",
"^ D A A D ^ ) ^ ~ ^ ~ V K ' ] X.o.e.3XM.t.$X~.I.$Xy.w.y.3XNXNXNXBXlX5X{.Q.Q.W...5 % p.C.9.6.6.l.x.z.",
"b q M B L ) } } ' ' ~ ~ V K ] X.X.w.wX@Xv.p.Y > R R T R A t.G.8XnXVX>X` w.e.U G Q y V.C.x.j.6.l.z.x.",
"7 e M J ~ ) ~ ^ { { ~ V V V ~  .y.w.;X-X$.y > R q.I.I.w.0 a i g 1.,X(._ u.3.( 8.` Q B.V.z.u.5.l.z.x.",
"B N J ~ L K ~ { ' ^ ' ~ ~ ~ ~ '  .L =XOXo k ^.~.~.^.$X^.].3XOXk Q 5._ &.-.*.9.x.&.:.b.b.u.8.5.u.u.x.",
"~ J J J D V ~ ~ { { { } ] ' ~ K V } wXQ O u 9X9Xw $ ].BXZXNX&X$.t t *.6.6.h.h.h.&.j.S.b.u.u.8.u.*.9.",
"V D ~ ^ ^ ~ K ~ { ^ { { { ' ~ J c f.&Xy k > w.9XoX> #XNXnX%XU t l &.l.h.h.h.*.*.6.(.B.B.u.u.u.,.*.6.",
"q M D D J J S N H P K E ' K N J , &XJ.W ( g g =.k o 5.S.v.<.;.@.f #.@.c.j.4.&.%.2.(.n.m.v.7.q.8.;.&.",
"8 e M M b 8 7 3 n 2 v K V V V m Y ;X!.j %.h s $.s o h &.h t f s f *.h.*.4.=.g ( p.J.V.A.p.8.b.M.5.5.",
"6 8 q q q 2 1 #   ; x ; , n c 7 ].,XOXY U h t h t l t d f f Q &.s @.k.;.j j j p.N.A.V.'.m.0.u.5.%.-.",
"6 6 q b B b 7 2 ; , = , v ; * S ,X%X*X:.h d s d t l r t h @.f r l s v.4.i W s.J.A.J.J.'.n.v.8.g =.,.",
"1 7 6 b A M q q 7 @ 1 9 @ 6 ) e.P.m.+X9.t t h t t t t h %.h t < l #.<.-.a n.'.A.N.!.'.m.2.t.9.@.:.3.",
"- - 1 8 q 9 9 9 e 0 5 % & 1.s.( S.I.v.4.r t @.r l t f &.Q h g t y k y ( a.].!.N.J.'.J.t.7.n.7.,.0.p.",
"- & & & 6 6 6 5 5 . 5 _ E.&XE.>.@X*Xj.7.@.d h r @.&.;.u.6.<.%.Q y y k p.#X[.d.E.].'.G.n.C.P.5.0.p.0.",
"& * @ @ : : : 5 X a &XgX&X&X$X,.*XwXD.oXj.h f f @.@.%.l.9.5.W i : : a.].{.J.A.].!.A.t.0.m.I.@.m.C.V.",
"% # % % < % X < s.gX3XQ n.3XH.b.qXqX@XS.oXj.;.&.&.t f 8.9.-.j o 5 s.A.$X$XA.!.~.a.q.r.M.M.7.z.0.(.(.",
". % % X 5 % u.(.8XL.Q g H.1Xb.H.6XqXqXoXD.M.h %.;.h < <.0.i g j a.A.J.$X!.!.&Xr.( q.0.r.r.7.v.q.b.V.",
"% % % < ,.(.(.(.;.B.H.<.OX1X;X:.6X=XqX*Xc.oXD.d i 5.g y j j ,.G.%X].!.J.C.C.N.=.2.2.q.0.q.$.7.v.b.C.",
"< X i (.g.Q f &.9.;X*XF.(.(.%XQ oXqXqX7X*XM.M.4.Q C.V.< y p.G.,X&X-X].C.C.q.$.p.m.G.n.q.q.q.p.S.V.(.",
"0 W ( W (.f *.Q Q (.(.(.=X8X1X;.z.6X;X7XqX(.8.b.b.(.(.2.3.#X+X-X].(.(.a.7.>.q.P.G.S.u.2.q.t.j.n.(.{.",
"Q W < t OXr l.&.6.l.c.6.;XqX%Xu.9.6XOX*X8X1X#Xb.p.V.(.#X+X#X$X+X(.p.u.,.$.j.oXP.OXm.z.D.P.m.p.C.(.[.",
"Q Q X 6.OX*.*.r *.(.(.h.OXvX8Xu.Q wX=X(.=X=X%X(.u.p.V.].'.'.#XC.n.M.0.9.S.@X@XoXS.M.B.G.B.(.m.V.}.}.",
"o < t 1X#.(.(.&.*.c.c.c.OXvXNX%X,.b.;X1XOX1X%X&X(.p.b.v.n.(.C.p.7.0.v.OX;X=X@XP.G.j.B.OXH.H.Z.%X[.}.",
"O o (.(.Q OXt vXOX*.c.c.*.7X7XOXu.Q (.1XOX=X1X;X(.(.,.3.-.,.W :.8.G.*X*X*XOXoXS.D.D.*X@XG.%X+X#XA._ ",
"O < (.(.<.OXr 7X(.(.h.OXl.(.vX1X(.` (.1X7X8X1X(.&X(.V.b.u.u.u.F.OX;X-X@XL.S.9.9.M.D.6X8X=X-X~.Z.s./ "
};
