/* XPM */
static char *asrrb_he8xm[] = {
/* columns rows colors chars-per-pixel */
"50 50 168 2 ",
"   c #000000",
".  c #090704",
"X  c #0F0905",
"o  c #0B0B0B",
"O  c #150F07",
"+  c #171008",
"@  c #1C1609",
"#  c #1F180A",
"$  c #121212",
"%  c #1D1D1D",
"&  c #24170D",
"*  c #221B0D",
"=  c #291D0E",
"-  c #201E1A",
";  c #2C220E",
":  c #2E281E",
">  c #322012",
",  c #3D2E16",
"<  c #352B1A",
"1  c #3D2F18",
"2  c #3D311B",
"3  c #232323",
"4  c #282727",
"5  c #2A2A2B",
"6  c #332D26",
"7  c #363024",
"8  c #3E3423",
"9  c #32302D",
"0  c #3D3428",
"q  c #333334",
"w  c #3B3936",
"e  c #373838",
"r  c #3D3D3D",
"t  c #453317",
"y  c #44341A",
"u  c #4B361A",
"i  c #4B381D",
"p  c #55371D",
"a  c #53391C",
"s  c #5A3D1E",
"d  c #423625",
"f  c #453926",
"g  c #4B3921",
"h  c #42362B",
"j  c #413929",
"k  c #493B2A",
"l  c #543C25",
"z  c #5C3E21",
"x  c #593F28",
"c  c #423C35",
"v  c #413F3B",
"b  c #603F20",
"n  c #56422E",
"m  c #494037",
"M  c #46413A",
"N  c #49443D",
"B  c #534433",
"V  c #5B4430",
"C  c #554639",
"Z  c #5D4B3E",
"A  c #654223",
"S  c #6C4525",
"D  c #6F4827",
"F  c #63452B",
"G  c #6E4729",
"H  c #69492E",
"J  c #704626",
"K  c #714827",
"L  c #754B29",
"P  c #7C4F2C",
"I  c #7F502E",
"U  c #604A37",
"Y  c #664F3B",
"T  c #6A4F39",
"R  c #724E32",
"E  c #66513E",
"W  c #6D533D",
"Q  c #765034",
"!  c #7A5233",
"~  c #70533C",
"^  c #3F3F40",
"/  c #3F4040",
"(  c #434444",
")  c #494745",
"_  c #484847",
"`  c #4B4B4B",
"'  c #524D46",
"]  c #594D43",
"[  c #56524F",
"{  c #5C534B",
"}  c #4F4F50",
"|  c #4E5052",
" . c #525252",
".. c #5C5754",
"X. c #5A5857",
"o. c #57585A",
"O. c #5B5B5C",
"+. c #615043",
"@. c #60554D",
"#. c #695749",
"$. c #715640",
"%. c #775943",
"&. c #7D5C46",
"*. c #715C4E",
"=. c #7E5F49",
"-. c #645A51",
";. c #625E5B",
":. c #735E50",
">. c #68635F",
",. c #7D6656",
"<. c #74665C",
"1. c #76685E",
"2. c #5F6060",
"3. c #636465",
"4. c #6C6865",
"5. c #6B6D6D",
"6. c #766960",
"7. c #746E6A",
"8. c #6F7071",
"9. c #727272",
"0. c #7A7572",
"q. c #757778",
"w. c #7B7A79",
"e. c #83522E",
"r. c #865431",
"t. c #895532",
"y. c #8E5933",
"u. c #84593B",
"i. c #855B3D",
"p. c #835A3C",
"a. c #8C5939",
"s. c #8E5A3A",
"d. c #885C3E",
"f. c #905936",
"g. c #905A36",
"h. c #915A37",
"j. c #975E37",
"k. c #965E37",
"l. c #925A36",
"z. c #935B38",
"x. c #915E3B",
"c. c #905D3B",
"v. c #955E38",
"b. c #975E38",
"n. c #955D38",
"m. c #985F39",
"M. c #985E38",
"N. c #9C6239",
"B. c #9C623A",
"V. c #9E633B",
"C. c #9A623E",
"Z. c #9F633C",
"A. c #9E643C",
"S. c #9D613A",
"D. c #A1653C",
"F. c #A1663D",
"G. c #A2673E",
"H. c #A2663D",
"J. c #82634D",
"K. c #946646",
"L. c #9E6741",
"P. c #9D6640",
"I. c #816653",
"U. c #816A59",
"Y. c #906B51",
"T. c #89776A",
"R. c #817B77",
"E. c #807E7D",
/* pixels */
"                                                                                                    ",
"                                                                                                    ",
"                                                                                                    ",
"                                                                                                    ",
"                                                                                                    ",
"                                                                                                    ",
"                                                                                                    ",
"                                                                                                    ",
"                                                                                                    ",
"                                                                                                    ",
"                                                                                                    ",
"                                                                                                    ",
"                                                                                                    ",
"                                                                                                    ",
"                                                                                                    ",
"                                                                                                    ",
"                                                                                                    ",
"                                                                                                    ",
"                                                                                                    ",
"                                                                                                    ",
"                                                                                                    ",
"                                                                                                    ",
"                                                                                                    ",
"                                                                                                    ",
"                                  $ ( _ _ _ _ _ `  . . .| X.O.O.` o                                 ",
"                              . _ o.( ^ / ^ ) ( ( ( _ `  . .O.O.3.3.q                               ",
"                              5 q.3.X._ ( ( ) ( ( / ( ( ( _ _ ( ` ` _ o                             ",
"                            X F <.9.w.w.9.4.3.3.>.O.X. . ._ _ r e q 7 ;                             ",
"                            * I u.u.u.! Q R H H H F F l l g y 2 y 2 t , .                           ",
"                          . G e.t.V.k.k.V.k.e.r.h.t.e.S b S A a z a t u ;                           ",
"                          . G r.y.F.g.A.V.N.I r.z.y.r.K s D J A p A u i :                           ",
"                          4 { 6.1.K.z.L.C.s.u.s.a.r.! K z G G A g m c c 4                           ",
"                          e 3.5.9.w.R.7.4.4.>.>.X.X...{ [ [ ' ) ) r q q 7 @                         ",
"                          h -.2.3.5.8.3.2.>.X.X.X.` ` _ ` ( ^ ^ r q q 9 8 #                         ",
"                          p P ~ &.&.E %.$.E n Z Z V B n 8 k d d d f 8 8 u *                         ",
"                          p t.r.D.V.t.V.N.t.I e.e.I L S u S A s p u u t u #                         ",
"                          p t.r.G.G.N.F.Z.v.r.g.t.e.P K s S J S s u u t u *                         ",
"                          p r.r.G.F.h.F.Z.v.r.y.t.e.P K s J J A s u a t u @                         ",
"                          p t.r.G.F.z.F.Z.v.e.y.t.t.P K s S J S s u a t u #                         ",
"                          l t.e.G.F.h.F.V.v.e.y.t.e.P K s S J S s u a t i *                         ",
"                          _ I.J.Y.A.h.F.V.k.I l.t.e.I K s J J A s i k h r %                         ",
"                          ( 9.9.q.T.U.U.U.,.:.:.*.*.#.] Z +.Z C B M e e 5 o                         ",
"                          9 X.3.5.q.8.3.3.3.O.o.O.| } ` ` ` ) / / r 9 q 6 +                         ",
"                          . V ] { { -.-.-.{ ` { ' N N N v M c c w 0 , 1 i =                         ",
"                          . S P P e.e.e.P S s K S A A n t z z p 1 u t u , O                         ",
"                            > ! t.N.t.k.h.e.D e.I I e.S a K D s t a t u ;                           ",
"                            $ *.u.d.e.e.l.e.S L P P L s p J S a t t u 2 .                           ",
"                            o  .w.0.J.=.J.&.W W ~ W H V n V x f d 2 < %                             ",
"                              $  .4.9.8.5.3.3.2.O.} } _ ( ( e e 9 5 $ .                             ",
"                                $ 3 ` } } ` ( ( ( ( e e e 5 5 5 3 o                                 "
};
