/* XPM */
static char *_00b0f7bbb5c4796dc06451239ff08f7[] = {
/* columns rows colors chars-per-pixel */
"50 50 205 2 ",
"   c #0F0E09",
".  c #12110C",
"X  c #1C1C1C",
"o  c #1A1915",
"O  c #201E1F",
"+  c #26251F",
"@  c #2C291E",
"#  c #343316",
"$  c #3B391C",
"%  c #1F2120",
"&  c #252424",
"*  c #2B2A24",
"=  c #26252A",
"-  c #28262B",
";  c #2C2C2C",
":  c #382F26",
">  c #332F29",
",  c #312B23",
"<  c #353025",
"1  c #35322C",
"2  c #3D342C",
"3  c #3B392E",
"4  c #2E2D32",
"5  c #302E34",
"6  c #333334",
"7  c #3D3934",
"8  c #353439",
"9  c #38373C",
"0  c #3B3B3C",
"q  c #3C3733",
"w  c #423F1E",
"e  c #41362E",
"r  c #42392F",
"t  c #433C34",
"y  c #433F3B",
"u  c #4A3F3A",
"i  c #483E35",
"p  c #434224",
"a  c #494623",
"s  c #4D4B27",
"d  c #45452A",
"f  c #4D4C2B",
"g  c #484728",
"h  c #514E2A",
"j  c #514D27",
"k  c #54532E",
"l  c #4B4136",
"z  c #44413C",
"x  c #4C433A",
"c  c #4D4A3D",
"v  c #474036",
"b  c #52463C",
"n  c #534A3E",
"m  c #545333",
"M  c #5D5B35",
"N  c #5D5C3A",
"B  c #565439",
"V  c #625E3B",
"C  c #65623D",
"Z  c #69653F",
"A  c #3E3D42",
"S  c #403F43",
"D  c #434344",
"F  c #4B4742",
"G  c #4D4A44",
"H  c #45454A",
"J  c #4B4B4B",
"K  c #48474D",
"L  c #544C43",
"P  c #5A4D43",
"I  c #544C4A",
"U  c #555246",
"Y  c #5B5146",
"T  c #54514C",
"R  c #5C544A",
"E  c #5A5944",
"W  c #4C4B52",
"Q  c #4A4750",
"!  c #545454",
"~  c #595755",
"^  c #5C5A55",
"/  c #5B5B5B",
"(  c #575958",
")  c #62544B",
"_  c #63594E",
"`  c #605F40",
"'  c #645D54",
"]  c #6A5D53",
"[  c #615B56",
"{  c #646343",
"}  c #696643",
"|  c #6C6A44",
" . c #6C6B4A",
".. c #64634B",
"X. c #706C47",
"o. c #716E49",
"O. c #75724C",
"+. c #78754F",
"@. c #696355",
"#. c #6D6C53",
"$. c #63615D",
"%. c #6B645B",
"&. c #6D6C5C",
"*. c #72665D",
"=. c #716A5D",
"-. c #716E55",
";. c #7A7652",
":. c #7D7A54",
">. c #72725C",
",. c #7A7957",
"<. c #646463",
"1. c #6A6562",
"2. c #676864",
"3. c #6C6A62",
"4. c #6D6C6C",
"5. c #736C63",
"6. c #796D65",
"7. c #716E69",
"8. c #6F706A",
"9. c #7B7465",
"0. c #7D7B63",
"q. c #74726B",
"w. c #7C756B",
"e. c #78766A",
"r. c #737373",
"t. c #7D7771",
"y. c #7B7974",
"u. c #7B7B7A",
"i. c #797778",
"p. c #817D57",
"a. c #827F58",
"s. c #827367",
"d. c #807E63",
"f. c #82766C",
"g. c #837A6E",
"h. c #837C73",
"j. c #8B7E73",
"k. c #847B75",
"l. c #838057",
"z. c #85825C",
"x. c #89875E",
"c. c #8A885F",
"v. c #8E8B63",
"b. c #82816C",
"n. c #928F68",
"m. c #95946C",
"M. c #99956F",
"N. c #858274",
"B. c #898176",
"V. c #8C847A",
"C. c #8D8B72",
"Z. c #93857A",
"A. c #95897F",
"S. c #928275",
"D. c #9E9A74",
"F. c #9A9670",
"G. c #A09E75",
"H. c #A5A37C",
"J. c #817F80",
"K. c #848484",
"L. c #8C8B8B",
"P. c #8A8985",
"I. c #938A81",
"U. c #9C8C82",
"Y. c #908F8C",
"T. c #9E928A",
"R. c #949494",
"E. c #9C9C9B",
"W. c #9B9795",
"Q. c #A4958A",
"!. c #A29187",
"~. c #A79A91",
"^. c #AFAC85",
"/. c #A4A39C",
"(. c #A6A390",
"). c #B3A39A",
"_. c #B9B690",
"`. c #9D9CA1",
"'. c #9FA1A0",
"]. c #A4A4A3",
"[. c #AAAAAA",
"{. c #A8A7A5",
"}. c #B1B3A9",
"|. c #B2B2B2",
" X c #BCBCBC",
".X c #B8B7B5",
"XX c #C2BE98",
"oX c #C6C49C",
"OX c #C3C3C3",
"+X c #CCCCCC",
"@X c #CECEC2",
"#X c #CECED0",
"$X c #D4D4D4",
"%X c #DBDBDB",
"&X c #D7D8D7",
"*X c #E3E4DA",
"=X c #F0EEDF",
"-X c #DFDFE1",
";X c #E2E2E2",
":X c #EBEBEB",
">X c #E8E8E5",
",X c #EFEFF1",
"<X c #F6F6F6",
"1X c #FFFFFF",
"2X c #F5F5EB",
/* pixels */
"1X1X1X1X1X1X1X1X1X1X1X1X1X1X1X1X1X1X1X1X1X1X1X1X1X1X1X1X1X1X1X<X1X1X1X1X1X1X1X1X1X1X1X1X1X1X1X1X1X1X",
"1X1X1X1X1X1X1X1X1X1X1X1X1X1X1X1X1X1X1X1X1X1X1X1X1X1X1X1X1X1X1X1X1X1X1X1X1X1X1X1X1X1X1X1X1X1X1X1X1X1X",
"1X1X1X1X1X1X1X1X1X1X1X1X1X1X1X1X1X1X1X1X1X1X1X$XE.r.( H ! / q.{.:X1X1X1X1X1X1X1X1X1X1X1X1X1X1X1X1X1X",
"1X1X1X1X1X1X1X1X1X1X1X1X1X1X1X1X1X1X1X1X<X[.W 8 ; & & ; 4 & X & 0 K.:X1X1X1X1X1X1X1X1X1X1X1X1X1X1X1X",
"1X1X1X1X1X1X1X1X1X1X1X1X1X1X1X1X1X1X1X{.0 8 $.J ! J H 8 ; ; 8 6 * X D |.1X<X1X1X1X1X1X1X1X1X1X1X1X1X",
"1X1X1X1X1X1X1X1X1X1X1X1X1X1X1X1X1X+X( X i.L.( J J D 3 0 H ! 2.( ! 0 & & E.1X1X1X1X1X1X1X1X1X1X1X1X1X",
"1X1X1X1X1X1X1X1X1X1X1X1X1X1X1X1XR.& 6 '.P.H ! J 6 9 J ! r.P.R.].4.! H > ; |.1X1X1X1X1X1X1X1X1X1X1X1X",
"1X1X1X1X1X1X1X1X1X1X1X1X<X1X1Xi.9 J {.L.0 2.! D 0 ! / J.[. X-X:X+X! ! 0 8 S OX1X1X1X1X1X1X1X1X1X1X1X",
"1X1X1X1X1X1X1X1X1X1X1X1X1X1X8.; J E.L.J r.2.W D ! r.E. X;X%X X;X XJ.( H D J / :X1X1X1X1X1X1X1X1X1X1X",
"1X1X1X1X1X1X1X1X1X1X1X1X1X'.% 9 8.[.J r.! A 0 J 8.R.OX&X+XE.R.&XOXL.! A z H H K.1X1X1X1X1X1X1X1X1X1X",
"1X1X1X1X1X1X1X1X1X1X1X1X;X6 J i.[./ ! 8.! 4 A 4.R. XOX|.'.[.].&X$XL.! J H D ( J $X1X1X1X1X1X1X1X1X1X",
"1X1X1X1X1X1X1X1X1X1X1X1XJ.A W $.L.'.K.( 6 D i.R..X|.E.E.R.]. X$X XR.$.J J 0 ( z L.1X1X1X1X1X1X1X1X1X",
"1X1X1X1X1X1X1X1X1X1X1X;XD <.z L./ W r.R.4.( L.R.'.K.u.i.i.E.R.'.R.<.! 0 D 9 ! <./ <X1X1X1X1X1X1X1X1X",
"1X1X1X1X1X1X1X1X1X1X1XW.! S 9 %X$XE.J D 2.u.R.K.J.r.4.<.4.J.E.L.<.( D 0 H 0 ! <.! $X1X1X1X1X1X1X1X1X",
"1X1X1X1X1X1X1X1X1X1X1XK.0 8 6 }.%X$X[.K.<.K ( u.J.4.4.r.r.L.E.J.8.! 5 K ^ D J <.! {.1X1X1X1X1X1X1X1X",
"1X1X1X1X1X1X1X1X1X1X>XJ ; ! J J K.]. X|.R.L.r.8 ( 4.r./ i.K.u.4.2.H 6 ( 8.z ! / H R.1X1X1X1X1X1X1X1X",
"1X1X1X1X1X1X1X1X1X1X&X* z J F G z q %.Y.{.`.`.K.K ! 9 2.{.|.i.<.! 6 0 i.<.6 A <.J R.1X<X1X1X1X1X1X1X",
"1X1X1X1X1X1X1X1X1X1X%X9 J z B.V.V.q.R > I q.k.W.W.J.! S / L.4.<.D 6 ! R.( 6 ! 2.J [.1X1X1X1X1X1X1X<X",
"1X1X1X1X1X1X1X1X1X1X#X8 7 t.h.s.j.Z.A.h.6.P S I [ 4.J.~ ! / 5 5 % 4 J.r.0 ; ( 2.S  X1X1X1X1X1X1X1X1X",
"1X1X1X1X1X1X1X1X1X1X-XS y k.h.j.S.Z.S.Z.).).!.k.1.I y $.J I ^ <.8.r.( / 0 D / 2.W -X1X1X1X1X1X1X1X1X",
"1X1X1X1X1X1X1X1X1X1X1X$X2.t.w.h.N.w.T.T.1.*.] ] 5.T.5.F 1.^ 3.3.7.L.r.6 ; D $.H 2.<X1X1X1X1X1X1X1X1X",
"1X1X1X1X1X1X1X1X1X1X<X1XP.7 ^ G t _ u e t P Y.] u 5.f.e R 3 q.R 7.q.W.- ; T ! 6 E.1X1X1X1X1X1X1X1X1X",
"1X1X1X1X1X1X1X1X1X1X1X1XE.+ T 8.t j.w.[ I ] W.k.f.j.f.: L L y T w.%.4.+ 8 ! ! 6 &X1X1X1X1X1X1X1X1X1X",
"1X1X1X1X1X1X1X1X1X1X1X1X%X6 T z ' !.j.I.1.] 6.j.!.U.I.R r l F 1 %.$.0 X 0 ( 9 4.1X<X1X1X1X1X1X1X1X1X",
"1X1X1X1X1X1X1X1X1X1X1X1X$Xz y.G *.U.j.j.Z.j.A.Q.j.f.j.*.i Y L T N.q.D 0 <./ ;  X1X1X1X1X1X1X1X1X1X1X",
"1X1X1X1X1X1X1X1X1X1X1X1X>Xz q.U f.Z.Z.!.g.j.s.j.Z.f.g.] l L 5.h.3.r.0 ! 2.( ( <X1X1X1X1X1X1X1X1X1X1X",
"1X1X1X1X1X1X1X1X1X1X1X1X1Xy.H ^ V.I.w.Z.s.6.j.w.f.w.k.R b l *.T z 8.; ( 4.W {.1X1X1X1X1X1X1X1X1X1X1X",
"1X1X1X1X1X1X1X1X1X1X1X1X1X>XU 1 l I e e e Y @.f.f.f.*.i n L t G i.! ; ! <.J #X1X1X1X1X1X1X1X1X1X1X1X",
"1X1X1X1X1X1X1X1X1X1X1X1X1X$X1 * t L T.I.2 e x ] g.*.e P P _ l 1.y.H 0 ! 2.! -X1X1X1X1X1X1X1X1X1X1X1X",
"1X1X1X1X1X1X1X1X1X1X1X<X1Xi.* U T w.P *.*.@ x l n P e P ) R t r.L.H q ! $.J &X1X1X1X1X1X1X1X1X1X1X1X",
"1X1X1X1X1X1X1X1X1X1X1X1X1X$.7 n 2 6.j.*.) P t b l b _ P n b t y ].$.D K / ! {.1X1X1X1X1X1X1X1X1X1X1X",
"1X1X1X1X1X1X1X1X1X1X1X1X1XT t L Y R ] s.Z._ b R b b b ] _ L ' z ~ L.u.2.4./ ( <X1X1X1X1X1X<X1X1X1X*X",
"1X1X1X1X1X1X1X1X1X1X1X1X<Xq 2 R Y e n n l r b u b n e l n b R w.! F 2.2.2.i.r.}.1X<X1X1X1X1X*X}.>.d ",
"1X1X1X1X1X1X1X1X1X1X1X1X1X/.7 ' ] ) r n ] ) R ] ] ) _ e t 1 @.q.h.5.J 8 J * 6 ! >X1X1X2X@XN.m h m m ",
"1X1X1X1X1X1X1X1X1X1X1X1X1XE.* i i b c R ) x Y l : r n L z G t.6.d.N.$.$.T & =   /.=X(...f N  . .| +.",
"1X1X1X1X1X1X1X1X1X1X1X1X1X].+ q G L l P n n : x x c v l t %.@.%.I.N.G 8.o & < B 0.#.N O.,.:.:. .| o.",
"1X1X1X1X1X1X1X1X1X1X1X1X<X1X/.. t i * i R B x t G v + * %.5.*.Z.).%.%.q @ E -.d.| | :.+.| | o.Z C C ",
"1X1X1X1X1X1X1X1X1X1X1X1X1X1X:XL.T z I > * 3 3 * 1 > U 3.q.&.9.~.f.i U c 0.,.+.} ;.O.X.V | O.:.+. .| ",
"1X1X1X1X1X1X1X1X+XL.4.'.[.,X<X&X( * F ^ z z z G G $.w.t.3.&.B.V.: ..&.,.,.o.O.:.+.o.| :.M } | +.p.O.",
"1X1X1X1X1X1X1X#X; 4 9 - - H H X S J $.[ ( G ! [ e.N.V.e.&.5.9.E .. .{ O.:.Z O.:.o.o.} z.C +.o.C O.:.",
"1X1X<XR.'.+X'.A 4 H Q A W A A 4 A H / 4.$.&.e.h.N.b.b.y...&.>.#. .N { | M h X.:.X.} O.X.X.V Z O.} } ",
"1X&X( o ; 5 9 J H A 4 5 A A A A 8 4 A 2.2.e.e.w.y.0.e...8.d. .| { M m a ;.l.G.m.o.V X.X.X.o.O.} } C ",
"|.5 X 4 D 9 9 H Q H S A A = = A H A 4 A 2.e.3.3.5.>.&.C.d. .| { f m C C | x.G.H.j V X.O.p.+.X.C o.N ",
"X % ; 6 6 4 5 4 4 - 5 A A A A A S K H 8 0 ( 8.&.@.0.C.| { { N s B N | O.C M Z a k z.p.l.O.Z X.X.} f ",
"; & ; A ; 6 6 5 8 - = % A Q S S K A 4 6 ; & 0 c 0.0.#.} { s s Z z.#.O.X.O.n.H.^.m.:.l.:.p.| C V ` k ",
"+ * 6 6 0 A D H 8 5 4 4 A A A A = 6 A A S 1 o E { m | V w k o.o.,.:.X.z.m.H._.oXoXD.x.+.X.M a k s f ",
"; ; ; ; 6 6 4 5 5 ; % 5 4 A A = 6 D 6 0 ; * 8.-.{ m f $ N :.:.o.:.Z :.n.n.x.v.x.l.l.:.} m s p N d # ",
"* ; 6 6 ; 5 5 8 A 8 4 4 - 5 4 5 W D 9 * * e.#.` N f w { +.+.:.c.+.+.F.D.l.:.x.z.p.| N a k M j r d $ ",
"* 6 ; 6 8 A A 0 H 0 ; 6 6 8 4 4 8 4 ; 3 b.#.B N s s }  .Z +.:.o.+.H.XX^.p.v.X.j M k M  .|  . .f p # ",
"& ; ; ; ; 0 9 0 5 % - 9 D A S 4 8 = * >.{ m f k N  .M h :.X.Z c.^._.oXm.l.+.j | } +.a. .C } O.N d # "
};
