/* XPM */
static char *_26339e8b2c940928266225e2137a238[] = {
/* columns rows colors chars-per-pixel */
"50 50 207 2 ",
"   c #6B2D2B",
".  c #7F222A",
"X  c #782628",
"o  c #7D2529",
"O  c #7E282A",
"+  c #7C2A2B",
"@  c #7F2C2B",
"#  c #7E2D2B",
"$  c #6F3029",
"%  c #603B2E",
"&  c #6A3B2F",
"*  c #683E2E",
"=  c #70332C",
"-  c #79322E",
";  c #7E302C",
":  c #71392E",
">  c #723B30",
",  c #356333",
"<  c #346633",
"1  c #3C6435",
"2  c #3C6736",
"3  c #3F6737",
"4  c #356A36",
"5  c #3B6C37",
"6  c #376F3A",
"7  c #386D3A",
"8  c #3C6D3A",
"9  c #2F763A",
"0  c #277E3C",
"q  c #2E7C3D",
"w  c #32703A",
"e  c #347139",
"r  c #357339",
"t  c #36713B",
"y  c #37723A",
"u  c #36733A",
"i  c #30763A",
"p  c #387038",
"a  c #387039",
"s  c #3E703B",
"d  c #307B3D",
"f  c #4F492E",
"g  c #5A422D",
"h  c #594631",
"j  c #5F4530",
"k  c #534C31",
"l  c #554D31",
"z  c #554D32",
"x  c #594C31",
"c  c #5E4D33",
"v  c #5B4E35",
"b  c #445331",
"n  c #4F5132",
"m  c #485632",
"M  c #485633",
"N  c #455F35",
"B  c #4C5935",
"V  c #4D5A36",
"C  c #485D35",
"Z  c #4A5D36",
"A  c #4A5E36",
"S  c #535232",
"D  c #535333",
"F  c #545434",
"G  c #505934",
"H  c #67402F",
"J  c #66422F",
"K  c #674330",
"L  c #416233",
"P  c #416738",
"I  c #871624",
"U  c #811F27",
"Y  c #8C1E29",
"T  c #921326",
"R  c #961025",
"E  c #901525",
"W  c #9B1127",
"Q  c #9C1127",
"!  c #9E1327",
"~  c #9A1727",
"^  c #9E1527",
"/  c #951A27",
"(  c #951529",
")  c #971429",
"_  c #961529",
"`  c #941629",
"'  c #95172A",
"]  c #9A1228",
"[  c #911928",
"{  c #931829",
"}  c #A80221",
"|  c #A90221",
" . c #A80422",
".. c #AE0526",
"X. c #AC0727",
"o. c #AF0726",
"O. c #AE0627",
"+. c #A60A26",
"@. c #A20C26",
"#. c #A30F27",
"$. c #AA0B27",
"%. c #A60C28",
"&. c #A60D28",
"*. c #B50023",
"=. c #B30224",
"-. c #B30324",
";. c #B30225",
":. c #B40124",
">. c #B60124",
",. c #B40224",
"<. c #B70225",
"1. c #B60325",
"2. c #B50327",
"3. c #B60227",
"4. c #B20425",
"5. c #B30525",
"6. c #B10625",
"7. c #B40426",
"8. c #BF0023",
"9. c #B90024",
"0. c #B80025",
"q. c #B80125",
"w. c #BB0025",
"e. c #B80126",
"r. c #B90127",
"t. c #BA0026",
"y. c #BB0127",
"u. c #BC0025",
"i. c #BD0025",
"p. c #BD0125",
"a. c #BE0024",
"s. c #BF0024",
"d. c #BF0124",
"f. c #BE0025",
"g. c #BF0025",
"h. c #BE0125",
"j. c #BD0026",
"k. c #BC0126",
"l. c #BD0126",
"z. c #BD0127",
"x. c #BE0026",
"c. c #BF0026",
"v. c #BE0027",
"b. c #BF0027",
"n. c #BF0028",
"m. c #A21028",
"M. c #A21F37",
"N. c #AC1E37",
"B. c #B31D39",
"V. c #B01E38",
"C. c #B11E38",
"Z. c #812428",
"A. c #82252B",
"S. c #81272A",
"D. c #8D222B",
"F. c #85292C",
"G. c #90202B",
"H. c #A4223A",
"J. c #AB213B",
"K. c #AF203E",
"L. c #AF213E",
"P. c #B0213D",
"I. c #B1213E",
"U. c #C00025",
"Y. c #C10025",
"T. c #C20025",
"R. c #C00026",
"E. c #C10026",
"W. c #C00027",
"Q. c #C30026",
"!. c #C00028",
"~. c #16913F",
"^. c #27833E",
"/. c #21863D",
"(. c #2B813E",
"). c #2A833F",
"_. c #2C803D",
"`. c #248B3F",
"'. c #1C8F41",
"]. c #1D8F43",
"[. c #1F8F43",
"{. c #1E8F44",
"}. c #1B9445",
"|. c #1D9444",
" X c #1C9445",
".X c #1C9545",
"XX c #1D9545",
"oX c #149841",
"OX c #179B43",
"+X c #149C42",
"@X c #179D45",
"#X c #1B9B45",
"$X c #199D44",
"%X c #189E45",
"&X c #1B9C47",
"*X c #189F47",
"=X c #258240",
"-X c #258740",
";X c #2A8640",
":X c #268841",
">X c #248B40",
",X c #248D41",
"<X c #209241",
"1X c #219142",
"2X c #12A747",
"3X c #19A046",
"4X c #18A347",
/* pixels */
"N.>.;.;.>.;.;.;.;.;.=.;.;.;.;.=.*.;.;.;.;.>.;.;.;.=.;.;.;.;.;.;.;.;.=.;.;.;.;.;.>.;.>.;.;.;.>.;.>.J.",
"V.a.n.a.a.a.a.a.n.a.a.a.a.a.y.n.a.a.n.a.y.a.a.n.a.a.a.y.a.a.n.a.a.y.a.a.a.a.a.y.a.y.n.a.a.y.a.y.a.K.",
"V.a.a.n.a.y.n.a.a.y.y.a.n.n.y.a.a.y.y.a.y.a.a.y.y.y.a.n.a.y.y.a.a.n.n.a.n.y.a.a.a.y.y.a.y.a.a.y.a.L.",
"V.a.n.a.a.n.a.n.y.n.a.y.y.a.a.y.a.n.y.a.n.y.a.n.a.n.y.a.a.n.y.a.y.a.y.y.y.a.n.y.y.n.a.y.n.a.y.n.a.L.",
"V.a.n.a.n.a.n.y.y.a.y.n.y.n.y.y.y.n.y.y.a.a.a.y.a.y.a.y.y.n.y.a.y.n.y.n.a.y.a.y.a.n.n.y.a.y.y.a.y.L.",
"V.a.a.n.a.n.n.a.a.n.n.a.a.a.a.n.n.a.n.a.a.n.a.y.n.a.n.n.n.a.n.a.a.n.a.a.n.a.n.n.n.a.a.y.n.a.n.a.n.L.",
"V.n.y.a.a.n.a.n.n.a.a.n.a.n.n.a.a.a.a.n.n.n.a.n.a.n.a.a.n.a.a.n.a.a.n.a.a.n.n.a.y.n.a.n.a.n.a.a.y.K.",
"V.a.n.a.n.a.a.y.a.y.n.a.n.a.a.n.n.y.n.a.y.a.n.a.n.a.y.n.a.n.a.y.y.n.a.n.a.y.a.a.a.a.n.a.n.a.n.y.a.K.",
"V.a.n.n.a.n.y.n.a.n.y.a.a.n.a.a.a.y.n.a.y.n.a.n.y.a.n.y.a.a.n.a.a.n.a.n.y.a.n.y.y.n.a.n.n.a.n.a.a.L.",
"V.a.n.a.n.a.a.a.n.a.a.n.n.a.n.y.a.n.a.n.a.a.n.a.a.n.a.n.a.n.y.n.y.n.n.a.n.a.a.n.a.a.n.a.y.n.a.y.y.L.",
"V.a.a.n.a.n.n.a.n.a.n.a.y.a.a.n.n.a.y.a.a.n.n.y.n.n.y.a.y.n.a.n.n.a.a.y.a.n.y.a.a.n.n.y.a.a.a.n.n.L.",
"V.y.n.a.y.n.a.n.a.a.y.n.n.a.n.a.a.n.n.a.n.a.a.n.a.a.a.n.a.a.n.a.a.n.a.n.n.a.a.n.n.a.a.n.a.n.n.a.y.L.",
"V.a.a.n.a.n.a.a.n.a.a.n.y.a.n.y.n.n.a.y.y.a.n.a.>.a.a.n.a.n.a.n.y.a.n.a.n.a.n.a.a.a.n.a.a.n.y.n.a.K.",
"V.a.n.a.n.a.y.n.y.n.n.a.a.n.a.n.y.a.n.a.n.a.a.y.I 7.n.a.n.a.a.y.n.a.a.n.y.n.a.n.n.y.y.n.n.a.a.a.a.K.",
"V.a.a.n.a.a.n.a.a.n.y.n.n.y.a.a.y.n.a.n.a.n.a.2.k m.a.n.n.a.n.y.a.n.a.n.a.a.a.a.a.n.a.a.a.n.y.a.y.K.",
"V.R.n.a.n.y.a.n.n.a.a.a.a.n.a.n.a.a.n.a.n.a.n.&.d D.n.a.y.n.a.a.a.y.n.y.a.n.y.y.n.a.y.n.y.n.a.n.n.K.",
"V.a.n.a.n.a.a.n.n.a.n.a.a.n.a.a.n.a.n.y.n.a.n.D.#X> R.a.a.a.n.a.n.y.a.y.a.n.y.a.n.y.a.a.y.y.a.a.y.L.",
"V.a.y.n.a.y.n.a.y.n.a.a.n.a.n.y.a.n.a.a.a.n.a.: oXG y.a.a.n.a.n.a.y.a.n.n.a.n.a.a.n.a.n.n.a.a.n.n.L.",
"V.a.n.a.n.a.a.n.a.n.n.y.y.a.a.n.n.a.n.a.n.a.a.F , 5 7.R.n.a.n.a.a.n.a.n.a.n.y.n.a.n.y.n.a.n.n.a.y.K.",
"V.a.a.a.y.n.a.y.n.a.a.n.a.n.n.a.a.!.!.a.a.R.7.P = 7 ^ R.a.R.a.n.y.a.n.a.n.a.a.a.n.a.y.a.n.a.y.y.a.K.",
"V.a.n.a.a.n.a.n.a.a.a.n.n.a.n.y.y.@.' ( ( ( Z.i o a & ( ( ( ' ] >.n.a.n.a.a.a.n.a.y.a.n.a.n.n.a.a.L.",
"V.!.a.n.y.n.n.a.n.y.n.a.a.a.a.n.a.. =XXX{.{.XX4X1X3X#X}.XXXX{.% >.n.n.a.n.y.n.a.a.n.n.y.a.y.a.n.y.L.",
"V.a.n.a.n.a.a.y.n.a.a.n.n.y.n.a.n.y.* %X< $ L q z y >Xh b +XN O.n.a.n.a.a.n.a.n.n.y.a.a.a.n.a.a.n.L.",
"V.a.a.n.a.n.a.n.a.n.a.y.a.n.a.y.a.n.>.j -XZ.D K R.# _.T N 2 +.!.n.n.a.y.n.a.y.n.a.n.a.n.n.a.n.y.y.L.",
"V.n.n.y.a.a.n.a.n.y.a.a.n.a.a.n.n.a.a.7.D =X0 F.R.m.;X6 w Q !.!.a.n.a.a.a.n.n.a.n.a.a.y.a.n.y.n.a.K.",
"V.a.a.n.a.n.a.n.a.n.a.n.y.n.n.a.y.n.a.n.X.Z %X+ a.~ ,X;X{ a.n.a.n.a.n.y.n.a.a.n.a.n.a.n.n.a.a.a.a.K.",
"V.a.n.a.a.n.n.y.n.a.a.n.a.n.a.a.a.a.a.n.R.F.%X_.X L 2XA y.n.a.n.n.y.n.a.a.a.n.a.n.y.n.a.a.n.a.n.y.K.",
"V.R.a.n.n.a.n.a.a.y.n.a.n.a.n.y.a.n.n.a.a.J M t $X|.M 8 X.a.n.a.a.n.a.a.y.n.y.a.n.a.a.n.a.y.n.a.n.K.",
"V.a.n.a.y.n.a.n.a.n.y.n.y.n.a.n.n.y.a.n.y.B o z 2Xw E i ~ R.a.a.n.a.n.y.n.a.n.a.a.n.y.a.n.a.n.y.y.L.",
"V.a.y.n.a.a.n.a.n.a.a.a.a.a.n.a.a.n.n.a.$.1 f >Xg 6 n 4 # R.a.n.a.y.a.n.y.n.a.a.n.a.n.a.a.a.a.n.a.K.",
"V.a.n.a.n.a.y.a.a.n.a.y.n.a.y.a.a.n.a.n./ /.|.H 9.[ 9 '.c n.n.a.a.n.a.a.a.n.n.y.n.a.a.n.n.y.n.a.a.L.",
"V.a.a.a.y.n.a.n.n.a.y.n.a.n.n.a.n.a.n.a.- %Xx >.a.a.Y ,Xs 2.a.n.n.a.n.y.n.a.a.n.a.y.n.a.a.n.a.n.y.L.",
"V.a.n.a.y.a.n.a.n.y.a.n.y.n.a.n.a.n.a.y.v B O.a.n.a.n.Z.7 m.!.n.a.n.a.n.a.n.a.a.n.a.a.n.a.a.a.n.a.L.",
"V.!.a.n.n.a.a.n.a.a.n.a.a.a.n.a.y.n.n.2.  +.a.y.a.n.a.n.U R R.a.n.a.n.a.n.a.n.y.a.n.n.a.n.y.n.a.a.K.",
"V.a.n.a.a.n.y.n.n.a.n.n.n.a.y.a.n.a.y.y.;.n.a.n.a.a.n.n.y.>.n.a.n.a.y.a.y.a.a.n.n.a.n.n.n.a.a.n.y.K.",
"V.a.a.n.n.a.a.a.a.n.y.a.y.n.a.n.a.n.a.n.a.n.n.a.n.y.n.a.a.n.a.n.a.a.y.n.n.a.n.a.y.a.y.a.a.n.a.y.n.L.",
"V.n.n.a.n.a.a.n.n.a.y.n.a.a.n.a.a.a.n.a.a.y.a.y.y.a.n.y.a.n.y.a.n.a.y.a.n.a.n.y.n.a.y.n.n.a.n.a.y.L.",
"V.a.a.n.y.n.n.a.a.n.a.a.a.n.y.n.y.n.a.n.n.a.n.n.a.n.a.n.n.a.n.a.a.n.a.y.a.n.a.n.y.n.a.a.y.a.y.n.a.K.",
"V.a.n.a.a.a.n.y.n.y.a.n.y.n.a.n.n.a.y.n.a.n.n.a.n.y.a.a.a.a.a.n.n.n.a.n.n.y.a.a.a.a.a.n.y.n.a.n.a.K.",
"V.R.a.n.a.n.a.n.a.a.n.a.a.a.n.a.a.n.a.a.n.a.a.n.a.n.a.n.n.y.n.a.y.a.n.a.a.n.a.n.a.n.n.a.a.a.n.a.y.K.",
"V.a.y.n.a.n.n.a.n.a.a.n.a.n.y.a.a.n.a.a.a.n.a.a.n.a.n.a.a.n.a.a.a.n.a.a.n.a.a.y.n.a.a.n.a.a.n.a.n.K.",
"V.a.a.a.n.a.y.n.a.n.a.y.n.a.a.n.n.a.n.y.n.a.y.n.y.n.a.a.n.a.n.y.n.a.n.y.a.n.a.n.y.n.n.a.n.y.a.n.y.L.",
"V.n.a.n.a.n.n.a.n.n.a.n.n.a.n.a.n.y.n.a.a.a.n.a.a.n.n.y.y.a.a.n.y.a.a.n.n.y.n.a.a.n.a.a.n.a.n.y.a.L.",
"V.a.n.a.a.y.a.a.y.a.n.a.a.a.y.n.a.n.a.a.n.y.a.n.n.a.a.n.a.n.n.a.a.n.n.a.n.a.a.n.n.a.n.y.a.n.a.a.a.K.",
"V.a.n.a.a.n.y.y.a.y.n.a.n.y.a.n.n.a.n.y.a.y.n.a.a.a.a.n.n.a.n.n.n.y.a.a.a.n.a.a.n.a.n.a.n.n.a.n.y.K.",
"V.R.a.n.a.y.a.n.a.n.a.n.a.n.n.a.a.y.a.n.n.n.a.n.n.y.n.a.a.n.y.a.a.n.a.n.n.a.n.y.a.a.y.n.y.a.n.a.n.L.",
"V.a.n.a.a.n.a.y.n.a.y.a.a.n.a.n.a.n.a.a.a.n.a.a.n.a.a.n.n.a.n.a.a.n.n.a.y.a.a.n.n.a.n.a.a.n.y.a.a.L.",
"V.a.a.n.n.a.n.n.a.n.n.a.n.a.a.y.n.a.n.y.n.a.y.n.a.n.a.y.a.n.a.a.n.a.y.n.n.a.n.a.y.n.a.y.n.a.n.a.a.P.",
"B.a.a.a.R.a.R.a.R.8.8.a.R.8.8.a.R.8.8.a.R.8.8.a.R.8.8.a.R.8.8.a.a.a.a.a.a.R.8.a.R.8.8.a.R.8.8.a.R.P.",
"M.}  . . . . . . . . . . . . . . . . . . . . . . . . . . . . . . . . . . . . . . . . . . . . . . .H."
};
