/* XPM */
static char *_fd128c890d44adfd91ed1e4c2c6836a[] = {
/* columns rows colors chars-per-pixel */
"50 50 236 2 ",
"   c #2C150B",
".  c #2C1609",
"X  c #311A0E",
"o  c #3C1F0D",
"O  c #341D12",
"+  c #2F1D13",
"@  c #352213",
"#  c #3A2315",
"$  c #3A261A",
"%  c #3C2A1C",
"&  c #3C2717",
"*  c #3B301C",
"=  c #3D2C22",
"-  c #3F3124",
";  c #442916",
":  c #432B1D",
">  c #4B2D1B",
",  c #492718",
"<  c #53241B",
"1  c #572B1A",
"2  c #44311E",
"3  c #4C321D",
"4  c #5C331C",
"5  c #54341D",
"6  c #43200C",
"7  c #643A1F",
"8  c #432E22",
"9  c #5C2E25",
"0  c #562C25",
"q  c #453223",
"w  c #4A3324",
"e  c #4E3925",
"r  c #45342A",
"t  c #4C362A",
"y  c #4C3A2D",
"u  c #463929",
"i  c #543623",
"p  c #533A25",
"a  c #5B3B24",
"s  c #53352A",
"d  c #5C342A",
"f  c #533C2B",
"g  c #5B3D2A",
"h  c #5C3324",
"j  c #4E3B32",
"k  c #523E32",
"l  c #5C3B32",
"z  c #633425",
"x  c #623B23",
"c  c #63352C",
"v  c #633B2B",
"b  c #6A3B2C",
"n  c #68362A",
"m  c #663D31",
"M  c #6C3E32",
"N  c #713E33",
"B  c #602F21",
"V  c #57412D",
"C  c #5B422C",
"Z  c #5C4026",
"A  c #544234",
"S  c #5B4434",
"D  c #5E4933",
"F  c #564439",
"G  c #5A463A",
"H  c #5D4A3B",
"J  c #554938",
"K  c #4F4635",
"L  c #64432C",
"P  c #6A442A",
"I  c #66482E",
"U  c #6C492E",
"Y  c #6A4226",
"T  c #624434",
"R  c #6C4333",
"E  c #644B34",
"W  c #6B4B33",
"Q  c #6C453A",
"!  c #634D3C",
"~  c #6B4C3A",
"^  c #664239",
"/  c #724335",
"(  c #734D33",
")  c #74443A",
"_  c #734B3B",
"`  c #794A3D",
"'  c #6D5237",
"]  c #65523D",
"[  c #6C533C",
"{  c #6C5B3F",
"}  c #73533C",
"|  c #7B553B",
" . c #7C593E",
".. c #75553A",
"X. c #71472E",
"o. c #5F4D42",
"O. c #624F42",
"+. c #734E41",
"@. c #7C4D42",
"#. c #7A4F48",
"$. c #645244",
"%. c #6C5443",
"&. c #6E5B42",
"*. c #655349",
"=. c #6A564B",
"-. c #6B5B4C",
";. c #665844",
":. c #735442",
">. c #7A5343",
",. c #755A44",
"<. c #7B5C44",
"1. c #745C4B",
"2. c #7B5D4A",
"3. c #785649",
"4. c #6D5B51",
"5. c #785F51",
"6. c #7C6146",
"7. c #75624C",
"8. c #7D624C",
"9. c #7C6B4F",
"0. c #746353",
"q. c #7C6453",
"w. c #7D6A54",
"e. c #7B6B5D",
"r. c #786459",
"t. c #7E6C62",
"y. c #81593E",
"u. c #835E44",
"i. c #825B4B",
"p. c #845447",
"a. c #875D52",
"s. c #846145",
"d. c #8B6346",
"f. c #83644D",
"g. c #8B654B",
"h. c #856A4D",
"j. c #8D694D",
"k. c #926B4C",
"l. c #93674A",
"z. c #836552",
"x. c #8B6554",
"c. c #856A53",
"v. c #8B6C54",
"b. c #836C5B",
"n. c #8C6D5A",
"m. c #926D54",
"M. c #916E5C",
"N. c #956B56",
"B. c #8D7156",
"V. c #84715D",
"C. c #8C735C",
"Z. c #887559",
"A. c #937155",
"S. c #9A7356",
"D. c #93735C",
"F. c #99755A",
"G. c #937A5F",
"H. c #9A795E",
"J. c #A37B5D",
"K. c #847364",
"L. c #8B7B6A",
"P. c #8B7664",
"I. c #937561",
"U. c #947B63",
"Y. c #9B7B64",
"T. c #937C6B",
"R. c #9D7D69",
"E. c #9A7767",
"W. c #937C72",
"Q. c #A27E62",
"!. c #A17E68",
"~. c #9C8266",
"^. c #9C836B",
"/. c #96846A",
"(. c #9C8A72",
"). c #9B8B7A",
"_. c #988574",
"`. c #8E8170",
"'. c #A48165",
"]. c #AA8265",
"[. c #A3836C",
"{. c #AC866A",
"}. c #A2886E",
"|. c #AE896C",
" X c #A48572",
".X c #A38C73",
"XX c #AB8B74",
"oX c #AD8E79",
"OX c #A58978",
"+X c #B28E74",
"@X c #B18E78",
"#X c #AC9175",
"$X c #A4937C",
"%X c #AC947C",
"&X c #A69377",
"*X c #B3937C",
"=X c #B79478",
"-X c #B18B6D",
";X c #9B8D80",
":X c #AA9583",
">X c #AA9786",
",X c #B49581",
"<X c #B39C84",
"1X c #BA9C83",
"2X c #B39D8A",
"3X c #BB9E89",
"4X c #BA9785",
"5X c #B4A18E",
"6X c #BCA48C",
"7X c #BCA185",
"8X c #B4A393",
"9X c #BAA593",
"0X c #BDAB9A",
"qX c #B9A896",
"wX c #BFAFA2",
"eX c #C29F8B",
"rX c #C2A48D",
"tX c #C7A78B",
"yX c #C4AC94",
"uX c #CCAB92",
"iX c #C2AD9B",
"pX c #C7A794",
"aX c #D0AE94",
"sX c #C8B39B",
"dX c #D4B69C",
"fX c #C8B6A3",
"gX c #D3BCA3",
"hX c #CAAEA0",
"jX c #D7C4AB",
"kX c #DAC9B2",
"lX c #E6D2BB",
"zX c #E4CBAD",
"xX c #F2DEC6",
"cX c #FEECD2",
"vX c #FFF1D6",
"bX c #F8E4C8",
/* pixels */
",.w.q.8.f.h.6.6.g.h.h.v.A.U.Z.C.h.h.v.z.f.6.:.,.<.f.u.N.Q.N.i.` p.#.i.[.@X!.D.<.( R L E E L I W E ~ ",
",.9.B.G.D.B.F.j.| J.Q.<.m.v.B.c.6.f.f.<.} <.f.n.F.v.g.` n z x b N 9 c ^ a.I.m.D.m.h.<.| ' W W W E ' ",
"U./.oXXXA.g.].J.y.X.J.g. .S.'.~.E.G.n.B.n.C.[. Xx.X.b z n M @._ ^ Q +.0 c _ 9 b >.I.R.D. .s.<.[ [ ' ",
".X}.v.m.-Xd.7 l.eXy.( S.y.U f.H.Y.U./. XoX,X,X2./ b n b ) M @.) < < c ) Q M 1 1 x P g.~.B.v.j.s.6.{ ",
"c.c.Q.'.|.dXk.X.l.=XS.| l.l.y.| B.I.2X5XiX3Xx.m ` b n y.p.) ` n < < c #.p.c n B b x 7 l.Q.S.A.B.h.6.",
"h.s.L 4 x H.tX-Xu.u.+X].Y ].{.P Y.~.2XfXqXM.+.#.n N p.p./ M p.) c ) c c c 9 < c n 1 1 ( Q.D.A.D.h.h.",
"m.L > 6 1 L X.+X1XL g.tX( {.+XH.+XXX^.3XE.M.a.M b N n N N 9 c c 0 0 0 d 9 < c N n 1 B 7 S.Q.H.U.C.Z.",
"W g 4 > > ..C C pX*Xa *X'.~.4X}.@X[.B.Y.i.M N N n n p.@.@.` ) ) 0 < M c c c N N n z 1 B u.+X'.~.~.~.",
":.a > a 5 &.-.q [ sX} i. Xx.H.v.rXR.c.E.>.z ) / ) x.a.` >. Xa.i.M.#.~ m m @.) @.n z b x N.=X[.~.Z.Z.",
"} D.2.} D 7.;.A q P.U.R a.2.8.D.rX6XoXI.b X.` ) / n a.#.R.*X>.E.,X@XR.M.m d N 9 M b z R g.*X+X.X~./.",
"#XY.U.G.9.e.;.- A e.).OX$XL.V.C.%XyXR.R z z M @.` !.eXx. XY.N.M.R. X X XE.+.2.N < ` M / >.=X,XoX^.~.",
"~.XX%X$X/.`.e.K % ).0X8X0XqX>XZ..X%Xn.R _ h c #.M.uXeXa.,XI.I.} M.R.!.R.E.^ Q a.< N ) b >.@X3X%X(.~.",
"*X5X<X2X$X`.`.K * `.qXqXqX8X8X5XqXqX Xd +.m i.+.Q ~ ^ ~ dX Xv.} f.H.R.I.T.+.l #.M c d N R ,X<X&X(.~.",
"<X5X7X8X>X(.(.J = ).wXwX8X8X5X8X8X>Xq.+.2.Q E.i.:.n.E > a.E.2.f.R.*X~.E.E.a.+.m +.c d m n.rX,X%X(.~.",
"2X5X2X8XqX(./.] - ;XwX8X>X;X).).)._.q.Q 2.x.,X XR.OX8.a.T h 2.+.3.u.} 3.3.+.+.0 +.0 d 5.hX9X:X%X.X/.",
"2X8X5XwX0X&X$X;.u 0.e.0.4.4.*.4.4.b.5.d >.x.4X X4X3XR.R.D.D.I.i i ~ [ g w s s 0 0 ^ ^ 3.8X0X7X:X&X(.",
"8X0XqX>X`.(.$X;.u A j A F j j j k O.Q c +.M.OXoX,X3X*XoX,X*Xx.Z i.M.f.~ ~ O.0 l m m O.;XOX0X2X1X%X(.",
"5XqX0X>X/.$X`.] u o.A q j j j - j o.d m x.I.E.*X,X*X*X XXX[.} } F. Xn.n.<.^ %.*.t 5.W.hX2X>X:X^./.G.",
"`.`.Z././.(.).;.u J F r $ = - = k F s 3.x.R. XXXOX,XoXx.rXD.R c. X*XOX!.z.q.T.m =.K.:XqXqX:XU.}.~.9.",
"V D D &.{ Z.$X;.u 0.e.= = = - r r y t n.R.!.!.M.Q. XXXx.~ a R n.R. X[.v.2.^ %.G =.r.;XiXiX9X(..XB.h.",
"D { ] S ! Z.).H j K e.5.8 y j k = k s I. Xx.Y. XE.D.M.M.>.:.2.v.n.P.n.z.%.: l r.F j F K.>XqX6X%X~.h.",
"D ] &.[ ;.7.`.J - *.j o.j j k j 8 5.G n. Xi.M.XX}.C.a.~ :.<.z.:.>.v.z.%.8 s F *.F j *.=.4.K..X*X#X~.",
"g E ] %.] w.`.K = $.G $ j $.j 8 F 5.:.R. X2.f.XX3X4Xz.~ _ <.D.z.n.x.:.G w l F r F G G F o.*.+.8.A.~.",
"k f f f J e.t.K = F K j = O.F 8 5.n.z. XOX2.i.h.@XpX,XI.f.f.c.x.1.~ 2.:.r y j = r *.o.O.^ O.3.q.B.~.",
"f g s f u 0.L.J u A A t t A S f b.2.n.rX X2.*XI.T ~ ] 5.2.%.T i p 2.T b.8 r j = r r.G A %.0.U.OX%X%X",
"S E ! &.D K.).-.J J H J -.o.8 I.I.3.M.,X[.i. XrXn.a ; > , > i g :.~ ~ b.^ y F r $ = 8 O.%.H 1.f.9.~.",
".X2.&.c.e.qXkX).e.-.K.L.L.H ] P.z.E.E.R.[.<.E.6XOXx.g s f g T 3.^ :.%.:.H 8 G = + - t y A G k D Z e ",
"}.}.q.] $XkXjXe.7.] 0.7.0.T.z.1.z.x.D.x.H.i.D.*XD.} } :.<.n.I.1.T 2.3.3.k G y y r y O.G q G O.S * 2 ",
"h.C..XjXlXxXlXjX(.3 e T w.7.T > i R ~ >.g.>.n.[.R.x.v.c.R.OXv.<.[ 2.T.K.o.*.j F *.o.o.*.k $ t H ! Z ",
"A.6.c.&X>X>X8X2Xh.D 7.w.I.C.L .. X@XM...L x 2.XXR.A.M.XX*Xn.D.oXz.z.R.L.j o.o.j o.K.5.*.G y q q V D ",
"E ] ] H D kX5X,.D V t.qXjX<XW m.+XuXuX+XD.<._ D.'.'.uXuXm.<.I.oX_.M.b.*.o.*.*.*.*.4.t.W.K.G A K 2 e ",
"%.;.-.0.;.yX%X9.] V K.jXjX<XW v.Q.{.Y.S.Q.'.f.( Y.uXeXs.( | 2.c.P.b.a.o.j o.r.*.o.r.t.4.F y q e q 2 ",
";.V A ;.G 7.h.(.^.w.V.0XjXrX,.'.'.H.F.j.j.g.y.| S.A.( P u.v.v.1.2.5.e.k r *.=.k 4.-.t O X $ = $ 2 e ",
"A q q A E 8.8.1X%X7.[ V.sX.X .{.'.S.l.d.g.u.U s.S.X.s.|.rX=Xc.:.3.1.b.S k $.F O.j & 8 t 8 $ $ w V V ",
"t % * w Z /.&X7XI.&.~ ' G.G.,.{.'.A.k.s.s.u.P | A.d.|.aXrX#XU.n.n.T.b.l k k *.q O q t q 8 8 t f V e ",
"A V y s Z #XjX6X<.} I I I W } '.'.S.A. .|  .| A.].].=XuXrX7X'.B.n.U.q.f k k H   # j G ! o.S 8 8 2 2 ",
"A V s p I 6XbXjX6...Z ..I 5 f.{.'.H.A.j.....( S.-XJ.=XtXtX=XD.B.v.n.5.0.G G t   q A *.3.! k s f 2 u ",
"V t @ ; Z 6XcXjX6.I L I <.j.s.H.{.'.A.j.s.| ( d.].].].-X'.J.S.v.h.f.~ OX$.S 8 # q t l G j t s t V K ",
"q # @ > 5 7XvXkX6.,.I h.yX#Xs.F.|.{.~.g.d.g.y.| '.].J.J.S.F.k.j.x.f.D :X/.w O.w 8 8 8 t 8 $ $ & q V ",
"# % # ; Z yXvXzX6...6.gXzXtXh.d.{.|.J.j.d.s.s.( J.].J.J.S.d.j.m.z.n.E _.iXk ~ q.# # w w : O O O @ ; ",
"@ & 3 p Z =XcXzX9.6.{ W ~.gX{...k.'.J.S.d.| U X.'.-XJ.A.g.k.m.v.n.2.s (.iX^.f 3.k . # s t : O X @ & ",
"2 f V Z 3 }.bXkX6.6.G.G.' 6.G.| | S.S.k.s.| Y ( {.-X].l.g.N.v.h.<.D w.>XfXsX1.; d : . $ t t 8 O * * ",
"f p 5 e 5 |.bXdX{ { Z.#X#X{ ' ' | s.k.d.s.| 7 Y ].].]. . .u.f.:.g 0._.2XsX[ ; 3 : s @ O ; O X O @ - ",
": f p 3 6.#XlXyX{ &.9.&XsX&X .....d.d.d.s.| 4 Y ].-XN. .( _ R > :.%X8X9X,.a E p w X 8 # O . O O . @ ",
"e s ; { c.G.dX.XD ;.w./.sXsX~.6.[ 6...d.y.Y 4 u.=XJ.X.` W v 3 L ^.yX1X8.7.c.c.E d 8 O = O     O X + ",
": @ %.f.' v.yXU.V ] &.w.&X0X6X/.6.~ ..X.Y x x {.J.( W x 5 ; L 3X6X~.[ 1.B.U.C.>.s w X O   +   X @ % ",
"X f W :.f.h.1XG.Z { &.9.6./.6X&Xc.E E h 4 4 Y | Y 4 a > o f rXsXh.C  .D.XXI.c.2.a :   O w O O O & * ",
"p [ g W B.B.=X9.p { w.9.9.{ { /.Z.~ i a L W ( | L 4 > > p U.Y.' I  .h.'..Xc.z.[ p 8 = X l s $ O @ u ",
"D { ' Z Z c.tXh.Z ] 7.9.(.9.{ ] { ] e 6.6.6.U F.G.I 3 { h.v. .I ' I h.XXG.V V V w & y @ ; G w # @ q ",
"%.[ 6.8.'  .%Xh.C E 9.9.(.(.Z.9.{ D e E ' L L ' E 5 { G.G.~.' I I W h.B.E p ] E u 2 V 2 ; ] ! % @ * "
};
